<svg width="54" height="61" viewBox="0 0 54 61" fill="none" xmlns="http://www.w3.org/2000/svg">
<path d="M53.1697 23.2825L46.7592 16.8721C46.18 16.293 45.2406 16.293 44.6613 16.8721L38.9604 22.573C38.96 22.5734 38.9594 22.5738 38.959 22.5743C38.9587 22.5749 38.9583 22.5753 38.9577 22.5757L24.333 37.2002C24.1136 37.4198 23.9682 37.7028 23.918 38.0094L22.6612 45.677C22.5838 46.1484 22.7385 46.6282 23.0762 46.9661C23.3566 47.2464 23.735 47.4004 24.1253 47.4004C24.205 47.4004 24.2853 47.3941 24.3652 47.3809L32.0328 46.124C32.3394 46.0738 32.6223 45.9286 32.842 45.709L53.1699 25.3806C53.448 25.1023 53.6043 24.725 53.6043 24.3314C53.6043 23.9378 53.448 23.5608 53.1697 23.2825ZM31.0814 43.2729L25.9231 44.1185L26.7687 38.9602L40.008 25.7212L44.3205 30.0336L31.0814 43.2729ZM46.4187 27.9358L42.1063 23.6233L45.7104 20.0191L50.0231 24.3316L46.4187 27.9358Z" fill="#FF8800"/>
<path d="M45.942 38.2841C45.1225 38.2841 44.4585 38.9482 44.4585 39.7677V57.1701H3.09105V3.10411H44.4585V12.7742C44.4585 13.5937 45.1225 14.2578 45.942 14.2578C46.7615 14.2578 47.4255 13.5937 47.4255 12.7742V1.6206C47.4255 0.801105 46.7615 0.137085 45.942 0.137085H1.60754C0.788044 0.137085 0.124023 0.801105 0.124023 1.6206V58.6536C0.124023 59.4731 0.788044 60.1371 1.60754 60.1371H45.942C46.7615 60.1371 47.4255 59.4731 47.4255 58.6536V39.7677C47.4255 38.9484 46.7615 38.2841 45.942 38.2841Z" fill="#10146B"/>
<path d="M19.5428 8.46587C18.9632 7.8867 18.0241 7.8867 17.4447 8.46587L11.7911 14.1196L9.5536 11.8821C8.97404 11.3029 8.03488 11.3029 7.45552 11.8821C6.87616 12.4617 6.87616 13.4008 7.45552 13.9802L10.742 17.2667C11.0318 17.5562 11.4116 17.701 11.7911 17.701C12.1707 17.701 12.5505 17.5562 12.8403 17.2667L19.543 10.564C20.1221 9.98459 20.1221 9.04543 19.5428 8.46587Z" fill="#10146B"/>
<path d="M19.5428 25.9415C18.9632 25.3623 18.0241 25.3623 17.4447 25.9415L11.7911 31.5952L9.5536 29.3575C8.97404 28.7783 8.03488 28.7783 7.45552 29.3575C6.87616 29.937 6.87616 30.8762 7.45552 31.4556L10.742 34.7421C11.0318 35.0316 11.4116 35.1764 11.7911 35.1764C12.1707 35.1764 12.5505 35.0316 12.8403 34.7421L19.543 28.0393C20.1221 27.4602 20.1221 26.521 19.5428 25.9415Z" fill="#10146B"/>
<path d="M17.4447 43.4173L11.7911 49.0711L9.5536 46.8333C8.97404 46.2542 8.03488 46.2542 7.45552 46.8333C6.87616 47.4129 6.87616 48.3521 7.45552 48.9314L10.742 52.2179C11.0203 52.496 11.3975 52.6523 11.7911 52.6523C12.1848 52.6523 12.5618 52.496 12.8403 52.2177L19.543 45.515C20.1223 44.9354 20.1223 43.9963 19.543 43.4169C18.9634 42.8379 18.0243 42.8378 17.4447 43.4173Z" fill="#10146B"/>
</svg>
