<svg width="66" height="66" viewBox="0 0 66 66" fill="none" xmlns="http://www.w3.org/2000/svg">
<path d="M26.682 40.8126L23.6364 42.1223C22.611 42.5588 21.4537 42.5588 20.4385 42.1223L17.3929 40.8126C15.9005 40.173 14.936 38.701 14.936 37.0766V31.6351C14.936 28.2747 17.667 25.5438 21.0273 25.5438H23.0577C26.4181 25.5438 29.149 28.2747 29.149 31.6351V37.0766C29.149 38.701 28.1846 40.173 26.6922 40.8126H26.682Z" fill="#FEDEC9"/>
<path d="M35.3724 46.8633C33.5247 44.9851 30.9562 43.8176 28.1237 43.8176H25.0781C25.0781 45.5029 23.7177 46.8633 22.0325 46.8633C20.3472 46.8633 18.9868 45.5029 18.9868 43.8176H15.9412C10.3372 43.8176 5.78906 48.3658 5.78906 53.9698V61.0762H28.1237L32.1846 46.8633H35.3724Z" fill="#6EB6FE"/>
<path d="M16.9561 57.0154H18.9865C20.1032 57.0154 21.0169 57.9291 21.0169 59.0458V61.0762H16.9561V57.0154Z" fill="#DDA15E"/>
<path d="M11.8801 33.3914C11.5857 33.5639 11.2304 33.6655 10.8649 33.6655C9.74816 33.6655 8.83447 32.7518 8.83447 31.635C8.83447 30.5183 9.74816 29.6046 10.8649 29.6046C11.2913 29.6046 11.6872 29.7366 12.0222 29.9701" fill="#10146B"/>
<path d="M32.1846 33.3914C32.479 33.5639 32.8343 33.6655 33.1998 33.6655C34.3166 33.6655 35.2302 32.7518 35.2302 31.635C35.2302 30.5183 34.3166 29.6046 33.1998 29.6046C32.7734 29.6046 32.3775 29.7366 32.0425 29.9701" fill="#10146B"/>
<path d="M18.9868 41.4928L20.4284 42.1121C21.4538 42.5588 22.6111 42.5588 23.6365 42.1121L25.0781 41.4928V43.8176C25.0781 45.5029 23.7177 46.8633 22.0325 46.8633C20.3472 46.8633 18.9868 45.5029 18.9868 43.8176V41.4928Z" fill="#FEDEC9"/>
<path d="M28.1235 61.0763L32.1844 46.8633H54.5191L50.4582 61.0763" fill="#8B8C89"/>
<path d="M28.5195 28.9752C27.9408 28.7417 27.2708 28.5895 26.4281 28.5895C22.0323 28.5895 22.0323 32.6503 17.6262 32.6503C16.4791 32.6503 15.6263 32.3762 14.9258 31.9701V31.6351C14.9258 28.2747 17.6567 25.5438 21.0171 25.5438H23.0475C25.4535 25.5438 27.5347 26.9448 28.5195 28.9752Z" fill="#274C77"/>
<path d="M29.139 36.305V31.635C29.139 28.2747 26.4081 25.5438 23.0477 25.5438H21.0173C17.6569 25.5438 14.926 28.2747 14.926 31.635V35.6959H12.8956C12.3372 35.6959 11.8804 35.239 11.8804 34.6807V31.635C11.8804 26.0311 16.4285 21.4829 22.0325 21.4829C24.8345 21.4829 27.3725 22.6199 29.2101 24.4575C31.0476 26.295 32.1846 28.8331 32.1846 31.635V34.8634C32.1846 35.3507 31.8395 35.767 31.3725 35.8583L29.139 36.305Z" fill="#E7ECEF"/>
<path d="M22.0326 61.0763H20.0022V59.0459C20.0022 58.4875 19.5453 58.0306 18.9869 58.0306H11.8804C11.3221 58.0306 10.8652 57.5738 10.8652 57.0154V52.9546C10.8652 52.6805 10.9769 52.4267 11.1596 52.2338L12.4693 50.9241C12.8652 50.5282 13.5048 50.5282 13.9007 50.9241C14.2967 51.3201 14.2967 51.9597 13.9007 52.3556L12.8855 53.3708V56.0002H18.9768C20.662 56.0002 22.0224 57.3606 22.0224 59.0459V61.0763H22.0326Z" fill="#10146B"/>
<path d="M53.5038 61.0762H2.74316V63.1066H53.5038V61.0762Z" fill="#10146B"/>
<path d="M35.3724 46.8632C33.5247 44.9851 30.9562 43.8176 28.1238 43.8176H25.0781V41.4927L26.6822 40.8126C28.1745 40.173 29.139 38.7009 29.139 37.0766V36.305L31.3724 35.8583C31.8394 35.7669 32.1846 35.3507 32.1846 34.8634V33.3913C32.479 33.5639 32.8344 33.6655 33.1998 33.6655C34.3166 33.6655 35.2303 32.7518 35.2303 31.635C35.2303 30.5183 34.3166 29.6046 33.1998 29.6046C32.7734 29.6046 32.3775 29.7366 32.0425 29.9701C31.8902 28.9955 31.5856 28.0716 31.1694 27.2188V2.19385H58.5802L63.6562 6.2547V52.9545H52.7833L54.5193 46.8632H35.3724Z" fill="white"/>
<path d="M22.0326 37.7264C21.9209 37.1781 22.2762 36.6401 22.8244 36.5284L31.1695 34.8635V31.9599C31.1695 27.0971 27.5046 22.8433 22.662 22.5185C17.3423 22.1631 12.8957 26.3864 12.8957 31.6351V34.6807H14.9261V36.7111H12.8957C11.7789 36.7111 10.8652 35.7975 10.8652 34.6807V31.9599C10.8652 26.1529 15.1697 21.0566 20.9565 20.5185C27.5959 19.8891 33.1999 25.1174 33.1999 31.6351V34.8635C33.1999 35.8279 32.5197 36.6604 31.5654 36.8533L23.2204 38.5182C22.6722 38.6299 22.1341 38.2746 22.0224 37.7264H22.0326Z" fill="#10146B"/>
<path d="M51.4738 7.2699H43.3521V9.30032H51.4738V7.2699Z" fill="#10146B"/>
<path d="M57.565 13.3612H37.2607V15.3916H57.565V13.3612Z" fill="#10146B"/>
<path d="M57.565 19.4525H37.2607V21.4829H57.565V19.4525Z" fill="#10146B"/>
<path d="M57.565 25.5438H37.2607V27.5742H57.565V25.5438Z" fill="#10146B"/>
<path d="M57.565 31.635H37.2607V33.6654H57.565V31.635Z" fill="#10146B"/>
</svg>
