<svg width="74" height="74" viewBox="0 0 74 74" fill="none" xmlns="http://www.w3.org/2000/svg">
<path fill-rule="evenodd" clip-rule="evenodd" d="M61.6752 9.24976C65.0772 9.24976 67.8349 12.0075 67.8349 15.4095V58.5274C67.8349 61.9294 65.0772 64.6871 61.6752 64.6871H12.3975C8.99559 64.6871 6.23779 61.9294 6.23779 58.5274V15.4095C6.23779 12.0075 8.99559 9.24976 12.3975 9.24976H61.6752ZM61.6752 15.4095H12.3975V58.5274H61.6752V15.4095ZM52.4356 46.208C54.1366 46.208 55.5155 47.5869 55.5155 49.2879C55.5155 50.8674 54.3266 52.1691 52.7948 52.347L52.4356 52.3677H21.6371C19.9361 52.3677 18.5572 50.9889 18.5572 49.2879C18.5572 47.7084 19.7462 46.4066 21.2779 46.2287L21.6371 46.208H52.4356ZM30.8766 21.5692C34.2786 21.5692 37.0363 24.327 37.0363 27.7289V33.8886C37.0363 37.2906 34.2786 40.0483 30.8766 40.0483H24.7169C21.315 40.0483 18.5572 37.2906 18.5572 33.8886V27.7289C18.5572 24.327 21.315 21.5692 24.7169 21.5692H30.8766ZM52.4356 33.8886C54.1366 33.8886 55.5155 35.2674 55.5155 36.9684C55.5155 38.6694 54.1366 40.0483 52.4356 40.0483H43.196C41.495 40.0483 40.1162 38.6694 40.1162 36.9684C40.1162 35.2674 41.495 33.8886 43.196 33.8886H52.4356ZM30.8766 27.7289H24.7169V33.8886H30.8766V27.7289ZM52.4356 21.5692C54.1366 21.5692 55.5155 22.9481 55.5155 24.649C55.5155 26.2285 54.3266 27.5303 52.7948 27.7082L52.4356 27.7289H43.196C41.495 27.7289 40.1162 26.35 40.1162 24.649C40.1162 23.0696 41.3051 21.7678 42.8369 21.5899L43.196 21.5692H52.4356Z" fill="#10146B"/>
</svg>
