<svg width="66" height="66" viewBox="0 0 66 66" fill="none" xmlns="http://www.w3.org/2000/svg">
<g clip-path="url(#clip0_92_194)">
<path fill-rule="evenodd" clip-rule="evenodd" d="M19.3224 2.98755C17.8267 2.98755 16.6141 4.20012 16.6141 5.69588V8.40422H13.9058C9.41846 8.40422 5.78076 12.0419 5.78076 16.5292V54.4459C5.78076 58.9333 9.41846 62.5709 13.9058 62.5709H35.846C34.2592 61.016 32.9445 59.1844 31.9801 57.1542H13.9058C12.41 57.1542 11.1974 55.9417 11.1974 54.4459V30.0709H54.5308V30.856C56.4873 31.4383 58.3116 32.328 59.9474 33.469V16.5292C59.9474 12.0419 56.3099 8.40422 51.8224 8.40422H49.1141V5.69588C49.1141 4.20012 47.9016 2.98755 46.4058 2.98755C44.91 2.98755 43.6974 4.20012 43.6974 5.69588V8.40422H22.0308V5.69588C22.0308 4.20012 20.8182 2.98755 19.3224 2.98755ZM43.6974 16.5292V13.8209H22.0308V16.5292C22.0308 18.025 20.8182 19.2375 19.3224 19.2375C17.8267 19.2375 16.6141 18.025 16.6141 16.5292V13.8209H13.9058C12.41 13.8209 11.1974 15.0335 11.1974 16.5292V24.6542H54.5308V16.5292C54.5308 15.0335 53.3182 13.8209 51.8224 13.8209H49.1141V16.5292C49.1141 18.025 47.9016 19.2375 46.4058 19.2375C44.91 19.2375 43.6974 18.025 43.6974 16.5292Z" fill="#10146B"/>
<path d="M46.4058 43.6125C46.4058 42.1167 47.6183 40.9042 49.1141 40.9042C50.6099 40.9042 51.8224 42.1167 51.8224 43.6125V48.2248L54.206 50.6081C55.2636 51.666 55.2636 53.3807 54.206 54.4385C53.1484 55.4961 51.4335 55.4961 50.3759 54.4385L47.199 51.2617C46.63 50.6926 46.367 49.9332 46.4104 49.1884C46.4074 49.1356 46.4058 49.0825 46.4058 49.0292V43.6125Z" fill="#10146B"/>
<path fill-rule="evenodd" clip-rule="evenodd" d="M65.3643 49.0292C65.3643 58.0038 58.0889 65.2792 49.1143 65.2792C40.1397 65.2792 32.8643 58.0038 32.8643 49.0292C32.8643 40.0546 40.1397 32.7792 49.1143 32.7792C58.0889 32.7792 65.3643 40.0546 65.3643 49.0292ZM38.2319 49.0292C38.2319 55.0392 43.1042 59.9115 49.1143 59.9115C55.1243 59.9115 59.9966 55.0392 59.9966 49.0292C59.9966 43.0191 55.1243 38.1468 49.1143 38.1468C43.1042 38.1468 38.2319 43.0191 38.2319 49.0292Z" fill="#10146B"/>
</g>
<defs>
<clipPath id="clip0_92_194">
<rect width="65" height="65" fill="white" transform="translate(0.364258 0.279175)"/>
</clipPath>
</defs>
</svg>
