<svg width="74" height="74" viewBox="0 0 74 74" fill="none" xmlns="http://www.w3.org/2000/svg">
<rect x="12.1455" y="10.5706" width="48.0331" height="57.451" rx="4" fill="white"/>
<path d="M13.4945 15.0482C13.4945 12.8391 15.2854 11.0482 17.4945 11.0482H50.9909C53.2001 11.0482 54.9909 12.8391 54.9909 15.0482V26.6092C54.9909 28.0417 56.1522 29.203 57.5847 29.203C59.0173 29.203 60.1785 28.0417 60.1785 26.6092V9.86133C60.1785 7.65219 58.3877 5.86133 56.1785 5.86133H12.3076C10.0985 5.86133 8.30762 7.65219 8.30762 9.86133V64.106C8.30762 66.3151 10.0985 68.106 12.3076 68.106H23.869C25.3013 68.106 26.4624 66.9449 26.4624 65.5126C26.4624 64.0802 25.3013 62.9191 23.869 62.9191H17.4945C15.2854 62.9191 13.4945 61.1283 13.4945 58.9191V15.0482Z" fill="#10146B"/>
<path d="M18.6821 18.2351C18.6821 17.1305 19.5776 16.2351 20.6821 16.2351H47.8048C48.9094 16.2351 49.8048 17.1305 49.8048 18.2351V19.422C49.8048 20.5266 48.9094 21.422 47.8048 21.422H20.6821C19.5776 21.422 18.6821 20.5266 18.6821 19.422V18.2351ZM18.6821 28.6096C18.6821 27.505 19.5776 26.6096 20.6821 26.6096H42.6172C43.7218 26.6096 44.6172 27.505 44.6172 28.6096V29.7965C44.6172 30.901 43.7218 31.7965 42.6172 31.7965H20.6821C19.5776 31.7965 18.6821 30.901 18.6821 29.7965V28.6096ZM18.6821 38.9833C18.6821 37.8788 19.5776 36.9833 20.6821 36.9833H32.2435C33.348 36.9833 34.2435 37.8788 34.2435 38.9833V40.1702C34.2435 41.2748 33.348 42.1702 32.2435 42.1702H20.6821C19.5776 42.1702 18.6821 41.2748 18.6821 40.1702V38.9833ZM56.9413 34.5914C56.1603 33.8104 54.894 33.8104 54.1129 34.5914L32.2692 56.4351C31.8958 56.8086 31.6852 57.3145 31.6834 57.8426L31.6561 65.9847C31.6523 67.0893 32.5448 67.9877 33.6494 67.9914L41.8574 68.0189C42.3901 68.0206 42.9016 67.8098 43.2783 67.4331L65.1164 45.5949C65.8975 44.8139 65.8975 43.5475 65.1164 42.7665L56.9413 34.5914ZM58.2933 43.2789C58.7913 43.777 58.7913 44.5844 58.2932 45.0824C57.7952 45.5804 56.9878 45.5805 56.4897 45.0825L54.6251 43.2183C54.1269 42.7201 54.1269 41.9124 54.6251 41.4142C55.1232 40.9161 55.931 40.9161 56.4291 41.4143L58.2933 43.2789ZM52.3102 48.2378C53.0912 49.0188 53.0912 50.2851 52.3102 51.0662L45.9747 57.4017C45.1937 58.1827 43.9273 58.1827 43.1463 57.4017L42.3069 56.5623C41.5258 55.7812 41.5258 54.5149 42.3069 53.7338L48.6424 47.3983C49.4234 46.6173 50.6897 46.6173 51.4708 47.3983L52.3102 48.2378ZM38.854 62.8214C37.7494 62.8178 36.8569 61.9194 36.8606 60.8148L36.8655 59.3222C36.8658 59.2273 36.9037 59.1364 36.9707 59.0693C37.1111 58.9289 37.3386 58.9289 37.4789 59.0693L40.6498 62.2401C40.7839 62.3743 40.7839 62.5917 40.6498 62.7259C40.5851 62.7906 40.4973 62.8268 40.4058 62.8265L38.854 62.8214Z" fill="#10146B"/>
</svg>
