<svg width="52" height="58" viewBox="0 0 52 58" fill="none" xmlns="http://www.w3.org/2000/svg">
<rect x="1.29834" y="1.00195" width="49.4604" height="55.4472" rx="9" fill="white" stroke="#10146B" stroke-width="2"/>
<g clip-path="url(#clip0_112_233)">
<path d="M18.4346 11.1749C18.3365 10.8666 18.0923 10.6293 17.7854 10.5438L13.9193 9.46725L11.7206 6.05013C11.3722 5.50787 10.4913 5.50787 10.1429 6.05013L7.94471 9.46725L4.0781 10.5438C3.77124 10.6293 3.52704 10.8666 3.4289 11.1749C3.33076 11.4836 3.39158 11.8215 3.59016 12.0743L6.09802 15.263L5.90681 19.3455C5.89161 19.6697 6.03767 19.9794 6.29476 20.1702C6.45833 20.2914 6.65323 20.3539 6.84951 20.3539C6.96193 20.3539 7.07527 20.3332 7.18355 20.2914L10.9318 18.8446L14.6804 20.2914C14.9776 20.4065 15.3121 20.361 15.5692 20.1702C15.8263 19.9794 15.9724 19.6697 15.9572 19.3455L15.7659 15.263L18.2733 12.0743C18.4719 11.8215 18.5327 11.4831 18.4346 11.1749ZM14.0699 14.3429C13.9262 14.5257 13.8529 14.7565 13.8635 14.9909L14.0031 17.9725L11.2658 16.9156C11.158 16.8738 11.0451 16.8532 10.9318 16.8532C10.8184 16.8532 10.7055 16.8738 10.5977 16.9156L7.86085 17.972L8.00046 14.9909C8.01152 14.7565 7.9378 14.5257 7.79404 14.3429L5.96256 12.0146L8.78604 11.2284C9.00812 11.1664 9.20025 11.024 9.3265 10.8276L10.9318 8.33244L12.5375 10.8276C12.6637 11.024 12.8558 11.1664 13.0779 11.2284L15.9009 12.0146L14.0699 14.3429Z" fill="#FF8800"/>
<path d="M38.2959 10.4272H22.2544V12.352H38.2959V10.4272Z" fill="#10146B"/>
<path d="M48.6745 15.2391H22.2544V17.1638H48.6745V15.2391Z" fill="#10146B"/>
<path d="M18.4346 26.9021C18.336 26.5938 18.0923 26.3565 17.7854 26.271L13.9193 25.1949L11.7206 21.7778C11.3722 21.2355 10.4913 21.2355 10.1429 21.7778L7.94471 25.1949L4.0781 26.271C3.77124 26.3565 3.5275 26.5938 3.4289 26.9021C3.33076 27.2103 3.39158 27.5486 3.59016 27.8015L6.09802 30.9902L5.90681 35.0727C5.89161 35.3969 6.03767 35.7066 6.29476 35.8974C6.5514 36.0872 6.88591 36.1328 7.18355 36.0186L10.9318 34.5718L14.6804 36.0186C14.7887 36.0604 14.902 36.0811 15.0145 36.0811C15.2107 36.0811 15.4056 36.0186 15.5692 35.8974C15.8263 35.7066 15.9724 35.3969 15.9572 35.0727L15.7659 30.9902L18.2733 27.8015C18.4719 27.5486 18.5327 27.2103 18.4346 26.9021ZM14.0699 30.0701C13.9262 30.2529 13.8529 30.4836 13.8635 30.7181L14.0031 33.6996L11.2658 32.6428C11.158 32.601 11.0451 32.5803 10.9318 32.5803C10.8184 32.5803 10.7055 32.601 10.5977 32.6428L7.86085 33.6992L8.00046 30.7181C8.01152 30.4836 7.9378 30.2529 7.79404 30.0701L5.96256 27.7418L8.78604 26.9561C9.00812 26.8941 9.20025 26.7517 9.3265 26.5553L10.9318 24.0601L12.5375 26.5553C12.6637 26.7517 12.8558 26.8941 13.0779 26.9561L15.9009 27.7418L14.0699 30.0701Z" fill="#FF8800"/>
<path d="M38.2959 25.825H22.2544V27.7497H38.2959V25.825Z" fill="#10146B"/>
<path d="M48.6745 30.6368H22.2544V32.5616H48.6745V30.6368Z" fill="#10146B"/>
<path d="M18.4346 42.6296C18.336 42.3213 18.0923 42.084 17.7854 41.9985L13.9193 40.9224L11.7206 37.5048C11.3722 36.9626 10.4913 36.9626 10.1429 37.5048L7.94471 40.9224L4.0781 41.9985C3.77124 42.084 3.5275 42.3213 3.4289 42.6296C3.33076 42.9378 3.39158 43.2762 3.59016 43.529L6.09802 46.7177L5.90681 50.8002C5.89161 51.1245 6.03767 51.4341 6.29476 51.6249C6.5514 51.8157 6.88591 51.8603 7.18355 51.7461L10.9318 50.2993L14.6804 51.7461C14.7887 51.788 14.902 51.8086 15.0145 51.8086C15.2107 51.8086 15.4056 51.7461 15.5692 51.6249C15.8263 51.4341 15.9724 51.1245 15.9572 50.8002L15.7659 46.7177L18.2733 43.529C18.4719 43.2762 18.5327 42.9378 18.4346 42.6296ZM14.0699 45.7977C13.9262 45.9804 13.8529 46.2112 13.8635 46.4456L14.0031 49.4272L11.2658 48.3704C11.158 48.3285 11.0451 48.3079 10.9318 48.3079C10.8184 48.3079 10.7055 48.3285 10.5977 48.3704L7.86085 49.4267L8.00046 46.4456C8.01152 46.2112 7.9378 45.9804 7.79404 45.7977L5.96256 43.4693L8.78604 42.6836C9.00812 42.6216 9.20025 42.4792 9.3265 42.2828L10.9318 39.7872L12.5375 42.2828C12.6637 42.4792 12.8558 42.6216 13.0779 42.6836L15.9009 43.4693L14.0699 45.7977Z" fill="#FF8800"/>
<path d="M38.2959 42.1851H22.2544V44.1098H38.2959V42.1851Z" fill="#10146B"/>
<path d="M48.6745 46.9968H22.2544V48.9215H48.6745V46.9968Z" fill="#10146B"/>
</g>
<defs>
<clipPath id="clip0_112_233">
<rect width="45.2916" height="46.1931" fill="white" transform="translate(3.38281 5.62952)"/>
</clipPath>
</defs>
</svg>
