<svg width="15" height="10" viewBox="0 0 15 10" fill="none" xmlns="http://www.w3.org/2000/svg">
<path d="M12.9175 0H2.08251C0.932432 0 0 0.846125 0 1.88975V8.11025C0 9.15387 0.932432 10 2.08251 10H12.9175C14.0675 10 15 9.15387 15 8.11025V1.88975C15 0.846125 14.0675 0 12.9175 0ZM5.21971 6.74717L2.3035 9.00479C2.0978 9.16408 1.78857 9.14194 1.61306 8.9551C1.43751 8.76844 1.46191 8.48784 1.66784 8.32856L4.58405 6.07096C4.78972 5.91166 5.09892 5.9338 5.27446 6.12067C5.45001 6.3073 5.42561 6.5879 5.21971 6.74717ZM7.5 5.8889C7.10994 5.88802 6.73184 5.77041 6.43623 5.53843L6.43646 5.53864L6.43553 5.538C6.43576 5.53822 6.43603 5.53822 6.43623 5.53843L1.96178 2.01433C1.75729 1.85328 1.73552 1.5727 1.91273 1.38737C2.09019 1.20181 2.39941 1.18205 2.60361 1.34287L7.07933 4.86785C7.17498 4.9451 7.3326 5.00088 7.5 5C7.66717 5.00045 7.82212 4.94619 7.92305 4.86633L7.92522 4.8646L12.3964 1.3429C12.6006 1.18208 12.9098 1.20183 13.0873 1.3874C13.2645 1.5727 13.2427 1.8533 13.0382 2.01436L8.56254 5.53952C8.2679 5.76908 7.89029 5.88845 7.5 5.8889ZM13.3871 8.9551C13.2116 9.14194 12.9024 9.16408 12.6967 9.00479L9.78053 6.74717C9.57463 6.58788 9.55022 6.3073 9.72577 6.12067C9.90129 5.9338 10.2105 5.91168 10.4162 6.07096L13.3324 8.32856C13.5383 8.48784 13.5627 8.76844 13.3871 8.9551Z" fill="#10146B"/>
</svg>
