<svg width="11" height="12" viewBox="0 0 11 12" fill="none" xmlns="http://www.w3.org/2000/svg">
<path d="M9.57254 4.8208H9.54293V3.6697C9.54293 1.66796 7.63336 -0.0332981 5.30437 0.000557829C3.03953 0.0344138 1.20397 1.62564 1.20397 3.57659V3.68663C1.20397 3.85167 1.36187 3.9871 1.5543 3.9871H2.67439C2.86683 3.9871 3.02472 3.85167 3.02472 3.68663V3.65277C3.02472 2.57784 3.96717 1.63411 5.22049 1.5664C6.58235 1.49445 7.71724 2.42126 7.71724 3.57236V4.81657H4.26323V4.8208H1.07074C0.478627 4.83773 0 5.24823 0 5.7603V10.9657C0 11.4862 0.493429 11.9094 1.10035 11.9094H9.5676C10.1745 11.9094 10.668 11.4862 10.668 10.9657V5.76454C10.6729 5.244 10.1795 4.8208 9.57254 4.8208ZM5.99024 8.59997C5.90635 8.65076 5.88168 8.70577 5.88168 8.79041C5.88662 9.17129 5.88662 9.55217 5.88168 9.93728C5.89155 10.0981 5.7978 10.2505 5.63003 10.3224C5.24022 10.4917 4.85041 10.2547 4.85041 9.93728C4.85041 9.93728 4.85041 9.93728 4.85041 9.93305C4.85041 9.55217 4.85041 9.16706 4.85041 8.78618C4.85041 8.71 4.83068 8.65499 4.75173 8.60421C4.34712 8.35029 4.21389 7.91439 4.4162 7.52928C4.61357 7.15686 5.09219 6.9368 5.54122 7.01721C6.04451 7.10185 6.39485 7.4531 6.39978 7.88053C6.41459 8.18101 6.27149 8.42646 5.99024 8.59997Z" fill="#10146B"/>
</svg>
